<?xml version="1.0" standalone="no"?>
<svg version="1.0" xmlns="http://www.w3.org/2000/svg"
 viewBox="73 173 220 220"
 preserveAspectRatio="xMidYMid meet">
<defs>
  <linearGradient id="ig" gradientUnits="userSpaceOnUse" x1="1800" y1="3900" x2="1800" y2="2300">
    <stop offset="0%" stop-color="#5ee882"/>
    <stop offset="50%" stop-color="#38d4a4"/>
    <stop offset="100%" stop-color="#28c8cc"/>
  </linearGradient>
</defs>
<g transform="translate(0.000000,563.000000) scale(0.100000,-0.100000)" stroke="none">
<path fill="url(#ig)" d="M2157 3831 c195 -38 366 -123 504 -249 l53 -49 -48 -54 c-79 -87 -79 -87 -131 -37 -64 61 -202 142 -293 172 -124 40 -190 49 -335 44 -143 -5 -224 -26 -346 -88 -207 -104 -387 -323 -441 -537 -9 -34 -15 -43 -33 -43 -37 -1 -108 -38 -144 -78 l-35 -37 7 40 c69 410 294 710 641 855 71 29 193 64 259 73 84 12 251 6 342 -12z M2138 3374 c77 -17 130 -43 171 -84 30 -30 31 -35 31 -114 0 -46 3 -111 6 -145 l7 -61 113 0 c69 0 114 4 114 10 0 6 -37 10 -90 10 l-90 0 0 39 c0 95 38 131 150 139 81 5 145 -11 182 -48 28 -28 28 -29 28 -155 0 -127 0 -127 -29 -156 -29 -29 -30 -29 -148 -29 -101 0 -123 -3 -151 -20 -38 -23 -62 -72 -62 -128 0 -21 -5 -43 -11 -49 -7 -7 -15 -55 -18 -107 -7 -103 -20 -132 -79 -172 -97 -66 -340 -88 -501 -44 -108 29 -160 68 -181 133 l-15 47 -197 0 c-109 0 -198 -3 -198 -7 0 -19 99 -171 142 -218 97 -106 294 -224 433 -260 265 -68 585 12 790 198 22 20 45 37 50 37 6 0 37 -27 70 -60 l59 -60 -29 -31 c-73 -76 -224 -173 -340 -220 -366 -146 -796 -69 -1084 196 -152 139 -242 278 -304 465 -28 83 -45 180 -26 145 18 -33 101 -88 154 -102 48 -13 205 -18 205 -7 0 3 -10 22 -22 43 -21 37 -26 39 -83 46 -79 9 -121 30 -156 78 -23 31 -29 51 -29 90 0 42 4 53 34 83 29 29 41 34 80 34 42 0 46 2 46 25 0 30 -12 29 228 25 l182 -2 0 148 c0 130 3 153 20 181 66 109 321 159 548 107z M1470 3153 c23 -49 26 -110 6 -135 -19 -25 -34 -22 -29 6 3 13 -7 47 -21 78 -30 64 -32 97 -9 141 l17 32 8 -40 c5 -22 17 -59 28 -82z M1795 3306 c-155 -38 -191 -107 -82 -160 82 -40 225 -54 349 -33 100 17 186 49 195 74 18 47 -34 91 -142 119 -62 17 -252 17 -320 0z M2450 3089 c-9 -15 -8 -24 1 -35 18 -22 53 -13 57 15 6 40 -39 56 -58 20z M2234 3084 c-11 -8 -58 -24 -104 -35 -118 -30 -291 -24 -403 14 -42 15 -80 27 -82 27 -7 0 -6 -102 1 -140 5 -24 18 -40 51 -60 121 -77 439 -63 539 23 23 21 25 27 22 103 -3 80 -3 81 -24 68z M1240 2850 c0 -80 67 -245 121 -299 30 -30 33 -31 120 -31 l89 0 0 175 0 175 -165 0 c-157 0 -165 -1 -165 -20z M1072 2818 c-18 -18 -14 -62 9 -92 24 -31 51 -46 97 -57 32 -7 33 -6 27 14 -4 12 -14 50 -22 85 l-15 62 -42 0 c-23 0 -47 -5 -54 -12z M1642 2749 c3 -73 6 -83 30 -104 15 -13 53 -33 85 -46 109 -43 372 -28 445 25 15 11 15 21 6 92 -6 43 -11 80 -12 81 -1 1 -24 -5 -53 -12 -82 -21 -201 -28 -288 -16 -77 11 -160 35 -179 53 -6 4 -16 8 -24 8 -11 0 -13 -16 -10 -81z M1646 2563 c-3 -4 -6 -40 -6 -81 0 -69 2 -76 30 -102 16 -15 60 -37 99 -50 61 -19 85 -22 203 -18 109 4 144 8 192 28 91 35 106 55 106 139 0 38 -4 72 -8 75 -5 3 -38 -6 -74 -19 -158 -57 -369 -51 -499 16 -20 10 -39 15 -43 12z M2654 2485 c-10 -25 4 -45 30 -45 13 0 26 7 30 15 9 25 -5 45 -30 45 -14 0 -27 -7 -30 -15z"/>
</g>
</svg>
