<?xml version="1.0" standalone="no"?>
<svg version="1.0" xmlns="http://www.w3.org/2000/svg"
 viewBox="122 25 612 449"
 preserveAspectRatio="xMidYMid meet">
<style>.logo-text { fill: currentColor; }</style>
<defs>
  <linearGradient id="ig" gradientUnits="userSpaceOnUse" x1="4550" y1="4950" x2="4550" y2="3100">
    <stop offset="0%" stop-color="#5ee882"/>
    <stop offset="50%" stop-color="#38d4a4"/>
    <stop offset="100%" stop-color="#28c8cc"/>
  </linearGradient>
</defs>
<g transform="translate(0.000000,515.000000) scale(0.100000,-0.100000)" stroke="none">
<path fill="url(#ig)" d="M4600 4841 c240 -63 406 -150 570 -300 l65 -59 -45 -48 c-25 -27 -60 -64 -78 -82 -38 -39 -28 -42 -135 48 -131 111 -315 196 -489 226 -148 26 -371 11 -513 -34 -125 -39 -320 -158 -413 -252 -109 -109 -213 -274 -258 -409 l-32 -96 -58 -20 c-74 -25 -85 -32 -140 -84 -52 -52 -53 -51 -25 105 24 133 43 189 115 335 74 151 151 251 297 385 161 148 438 275 664 305 33 4 134 6 225 5 131 -3 183 -8 250 -25z M4542 4289 c93 -26 158 -60 196 -104 39 -44 39 -46 46 -229 3 -82 8 -152 12 -155 3 -3 66 -7 140 -9 117 -3 134 -2 134 12 0 14 -17 16 -115 16 l-116 0 6 63 c12 112 57 147 199 155 111 5 177 -12 222 -59 l29 -30 0 -159 c0 -218 -3 -221 -230 -224 -113 -2 -146 -5 -173 -20 -41 -21 -71 -84 -79 -164 -3 -31 -9 -62 -14 -67 -4 -6 -11 -58 -15 -115 -7 -107 -23 -158 -61 -192 -30 -27 -121 -65 -213 -89 -75 -19 -102 -21 -235 -16 -125 4 -162 9 -221 30 -155 54 -214 106 -214 187 l0 30 -245 0 c-135 0 -245 -4 -245 -9 0 -14 77 -149 114 -199 45 -62 183 -187 258 -235 209 -132 406 -186 642 -174 149 7 259 34 386 95 123 58 186 99 257 166 32 31 63 56 70 56 6 0 44 -35 83 -77 l73 -78 -74 -68 c-176 -163 -396 -267 -664 -314 -110 -19 -321 -13 -440 12 -155 33 -349 116 -475 204 -162 114 -355 338 -432 500 -36 78 -103 279 -111 335 l-6 39 61 -61 c83 -85 132 -102 284 -102 129 0 125 -3 79 69 -24 39 -28 41 -73 41 -121 0 -212 56 -238 146 -18 64 -13 110 18 149 25 32 57 46 123 54 41 5 50 10 50 26 1 48 3 49 250 42 147 -4 235 -3 242 4 6 6 8 65 5 151 -5 186 0 220 44 263 62 62 175 109 299 126 92 12 287 0 367 -22z M3680 4125 c0 -14 16 -63 35 -109 19 -47 35 -91 35 -98 0 -17 -48 -88 -59 -88 -5 0 -11 20 -14 45 -4 25 -17 67 -29 93 -27 58 -29 119 -5 155 22 34 37 35 37 2z M5471 3767 c99 -66 98 -338 -2 -419 -33 -27 -37 -27 -208 -32 -95 -3 -175 -7 -178 -10 -16 -16 18 -24 103 -25 53 -1 101 -4 107 -8 5 -3 7 -31 4 -67 -5 -55 -9 -64 -42 -93 -98 -85 -377 -55 -401 43 -12 46 -10 269 1 299 25 61 41 68 204 76 222 11 261 38 269 181 l5 78 52 0 c38 0 61 -6 86 -23z M4145 4215 c-86 -18 -118 -30 -172 -67 -65 -44 -56 -91 25 -132 81
-40 146 -51 312 -51 140 1 162 3 234 27 79 27 136 68 136 98 0 38 -69 84 -170
114 -78 24 -276 30 -365 11z M4916 3938 c-14 -20 -14 -24 1 -40 19 -21 44 -23 61 -6 18 18 14 46
-7 58 -28 15 -38 13 -55 -12z M3930 3852 c0 -94 1 -99 28 -125 61 -58 184 -90 344 -88 168 1 316
42 357 99 18 25 21 44 21 117 0 97 7 92 -79 60 -143 -52 -356 -61 -515 -21
-53 14 -106 32 -118 40 -12 9 -26 16 -30 16 -5 0 -8 -44 -8 -98z M3430 3652 c0 -92 83 -302 145 -368 l32 -34 110 0 110 0 7 124 c4 68
4 165 0 215 l-7 91 -198 0 -199 0 0 -28z M3226 3605 c-39 -40 -2 -116 75 -155 40 -21 89 -27 89 -10 0 5 -5 20
-11 33 -6 13 -16 50 -22 83 l-12 59 -51 3 c-37 2 -56 -2 -68 -13z M3930 3526 l0 -94 34 -30 c108 -94 380 -121 576 -55 47 16 85 33 85
38 -2 42 -30 195 -36 195 -4 0 -36 -6 -71 -14 -166 -38 -321 -30 -491 25 -49
16 -91 29 -93 29 -2 0 -4 -42 -4 -94z M3929 3268 c0 -18 -2 -61 -5 -95 -6 -60 -5 -63 25 -90 17 -16 63 -42
103 -58 71 -28 78 -29 253 -30 177 0 181 1 248 29 38 16 82 40 98 53 28 24 29
27 29 119 0 54 -4 94 -10 94 -5 0 -33 -9 -62 -19 -191 -71 -437 -66 -616 10
-58 25 -62 24 -63 -13z M5165 3206 c-22 -16 -15 -40 18 -60 25 -16 66 27 51 52 -15 23 -44
26 -69 8z"/>
<path class="logo-text" d="M1790 1793 c25 -12 62 -37 83 -54 l38 -32 -38 -39 c-59 -61 -66 -63 -116 -28 -83 59 -209 50 -278 -19 -77 -76 -80 -230 -6 -309 74 -79 244 -83 306 -8 8 9 19 16 26 16 17 0 105 -70 105 -84 0 -18 -76 -75 -134 -102 -47 -21 -70 -25 -155 -25 -91 -1 -105 2 -163 30 -88 42 -129 79 -168 153 -63 117 -52 280 25 381 40 52 106 101 174 129 68 27 238 22 301 -9z M2397 1808 c11 -18 119 -251 149 -321 14 -32 43 -98 66 -145 66 -142 99 -215 96 -218 -7 -7 -139 -15 -156 -10 -12 4 -29 32 -47 76 l-28 70 -165 -2 -166 -3 -26 -64 c-15 -38 -34 -67 -45 -72 -29 -11 -155 -11 -155 1 0 5 22 56 49 112 26 57 90 195 141 308 51 113 101 222 111 243 l19 37 75 0 c48 0 77 -4 82 -12z M3278 1748 l3 -68 -111 0 -110 0 -2 -27 c-1 -16 -2 -139 -2 -275 -1 -135 -5 -250 -9 -255 -5 -4 -41 -8 -80 -8 l-72 0 -5 280 -5 280 -107 3 -108 3 0 63 c0 34 3 66 7 69 4 4 140 6 302 5 l296 -3 3 -67z M3721 1800 c13 -27 71 -153 104 -230 18 -41 53 -118 78 -170 24 -52 63 -134 86 -182 22 -48 41 -92 41 -96 0 -5 -37 -8 -82 -6 -46 2 -86 4 -90 4 -3 0 -18 32 -33 70 l-27 70 -164 0 c-186 0 -163 11 -200 -92 l-17 -48 -83 0 c-46 0 -84 4 -84 8 0 12 50 135 60 147 5 6 29 59 54 118 26 60 62 141 80 182 19 40 49 106 66 146 18 41 37 80 43 87 15 19 157 12 168 -8z M4246 1812 c6 -4 30 -32 55 -63 99 -125 273 -329 280 -329 5 0 10 89 11 198 l3 197 75 0 75 0 0 -350 0 -350 -67 1 c-62 1 -70 3 -90 30 -62 78 -301 365 -309 370 -5 3 -9 -76 -9 -194 l0 -199 -37 -7 c-56 -9 -108 -7 -118 3 -6 6 -9 147 -7 355 l3 346 62 0 c34 0 67 -4 73 -8z M5296 1812 c6 -4 26 -41 44 -82 18 -41 53 -118 78 -170 24 -52 59 -129 77 -170 18 -41 51 -113 73 -160 56 -118 56 -115 -3 -117 -27 -1 -67 1 -87 4 -35 4 -38 8 -63 74 l-27 69 -168 0 -168 0 -27 -70 -27 -70 -51 -1 c-29 0 -61 -2 -72 -4 -48 -9 -47 8 1 111 25 54 68 149 94 209 27 61 70 157 95 215 26 58 53 120 61 138 14 32 14 32 87 32 39 0 77 -4 83 -8z M5867 1768 c27 -29 70 -78 94 -108 89 -111 202 -240 210 -240 5 0 9 90 9 200 l0 201 78 -3 77 -3 3 -347 2 -347 -52 -6 c-29 -4 -63 -3 -75 2 -21 8 -99 99 -266 310 -39 50 -76 91 -82 89 -5 -1 -9 -81 -10 -197 l0 -194 -82 -3 -83 -3 0 344 c0 189 3 347 7 350 3 4 32 7 63 7 54 0 57 -1 107 -52z M7038 1748 l3 -67 -108 -3 -108 -3 -3 -277 c-1 -153 -6 -278 -10 -278 -21 -2 -129 -2 -144 -1 -17 1 -18 21 -18 281 l0 280 -110 0 -110 0 0 63 c0 35 3 67 7 70 4 4 140 6 302 5 l296 -3 3 -67z M7308 1471 c1 -199 -2 -347 -7 -350 -5 -3 -43 -5 -85 -3 l-76 4 0 342 c0 189 3 346 7 350 4 4 41 5 83 4 l75 -3 3 -344z M2300 1619 c-5 -13 -28 -69 -49 -124 l-38 -100 100 -3 c55 -1 101 -1
103 1 5 5 -85 230 -96 241 -5 5 -13 0 -20 -15z M3600 1578 c-13 -35 -36 -90 -51 -123 l-28 -60 106 -3 c58 -1 107 -1
109 1 3 2 -15 51 -40 108 -24 57 -46 112 -49 122 -11 30 -22 19 -47 -45z M5163 1515 l-50 -125 108 0 109 0 -10 23 c-5 12 -27 67 -49 122 -22
55 -44 101 -49 103 -4 1 -31 -54 -59 -123z"/>
<path class="logo-text" d="M5107 874 c3 -8 -1 -23 -10 -31 -13 -13 -19 -14 -31 -3 -28 22 -17 47 22 49 7 1 15 -6 19 -15z M5580 685 c0 -181 -2 -205 -16 -205 -9 0 -18 9 -21 20 -7 25 -9 25 -40 0 -45 -35 -136 -23 -176 23 -59 68 -43 186 31 230 36 20 107 22 142 2 14 -8 28 -14 33 -15 4 0 7 34 7 75 0 68 2 75 20 75 19 0 20 -7 20 -205z M3292 802 c3 -24 8 -27 46 -30 28 -2 42 -8 42 -17 0 -9 -14 -15 -42 -17 l-43 -3 0 -98 c0 -87 2 -100 20 -113 12 -9 31 -13 47 -10 30 6 48 -11 27 -25 -35 -22 -119 2 -133 36 -3 9 -6 61 -6 116 l0 99 -26 0 c-31 0 -28 23 4 28 17 3 22 10 22 31 0 15 3 30 6 34 12 12 33 -6 36 -31z M4883 801 c5 -26 11 -30 43 -33 51 -4 56 -26 7 -30 l-38 -3 -3 -96 c-3 -111 8 -134 60 -127 32 5 48 -9 27 -23 -26 -17 -77 -10 -105 15 -26 22 -28 29 -33 127 -6 99 -7 104 -29 107 -28 4 -24 26 6 30 15 2 22 10 22 26 0 45 35 50 43 7z M2835 740 c22 -21 23 -25 10 -33 -11 -6 -22 -4 -35 8 -33 30 -108 24 -144 -11 -46 -47 -33 -144 24 -177 37 -22 68 -21 109 4 25 15 37 17 45 9 8 -8 4 -18 -17 -36 -53 -46 -162 -28 -205 33 -49 70 -33 161 37 209 48 34 137 31 176 -6z M3111 741 c17 -18 29 -41 30 -58 2 -58 -3 -198 -7 -203 -3 -2 -14 1 -25 8 -14 9 -25 9 -39 2 -25 -13 -93 -13 -124 1 -35 16 -52 61 -36 98 15 36 53 51 131 51 32 0 61 4 64 10 11 18 -25 78 -51 84 -29 8 -92 -2 -100 -15 -10 -16 -34 -9 -34 10 0 25 39 39 108 40 46 1 57 -3 83 -28z M3639 756 c40 -21 51 -56 51 -166 0 -102 -11 -130 -36 -95 -13 17 -15 17 -32 2 -28 -25 -112 -23 -146 4 -20 16 -26 29 -26 58 0 58 26 75 121 80 84 3 88 6 69 55 -15 40 -42 49 -105 36 -66 -14 -70 -13 -70 2 0 35 121 51 174 24z M3830 755 c0 -19 9 -19 34 0 24 18 95 20 131 3 44 -20 55 -56 55 -173 0 -98 -1 -105 -20 -105 -19 0 -20 7 -20 104 0 129 -12 151 -84 151 -75 0 -90 -23 -96 -148 -4 -82 -8 -102 -20 -102 -12 0 -15 22 -18 129 -1 72 0 136 2 143 7 18 36 16 36 -2z M4341 744 c27 -27 38 -81 39 -177 0 -63 -3 -79 -16 -84 -10 -4 -20 0 -26 10 -8 16 -11 16 -33 1 -29 -19 -85 -21 -125 -4 -38 16 -56 60 -41 99 16 38 49 51 126 51 35 0 67 5 70 11 11 17 -17 70 -42 80 -35 13 -60 11 -100 -7 -47 -23 -65 -5 -26 26 24 19 37 21 91 18 46 -3 68 -9 83 -24z M4518 754 c9 -16 11 -16 33 0 14 9 43 16 72 16 40 0 53 -5 78 -29 16 -16 29 -40 30 -53 6 -177 4 -203 -16 -203 -21 0 -21 -4 -24 153 -1 43 -6 58 -27 79 -21 21 -32 24 -61 20 -20 -4 -46 -16 -59 -28 -21 -20 -24 -32 -26 -123 -3 -87 -5 -101 -20 -104 -17 -3 -18 9 -18 142 0 121 2 146 15 146 7 0 18 -7 23 -16z M5098 621 c2 -132 1 -142 -15 -139 -16 3 -18 18 -21 133 -3 136 0 159 21 153 9 -3 13 -44 15 -147z M5865 754 c33 -15 63 -65 68 -114 l2 -25 -117 -3 c-105 -2 -118 -5 -118 -20 0 -24 48 -69 83 -77 18 -5 45 -1 73 10 53 20 76 9 43 -21 -16 -15 -36 -19 -88 -19 -82 0 -121 24 -147 90 -14 39 -15 52 -5 86 12 40 52 91 81 102 29 11 93 7 125 -9z M6049 661 c26 -58 52 -106 57 -108 6 -2 32 44 59 102 49 108 60 124 75 109 8 -8 -11 -56 -92 -236 -22 -48 -45 -61 -65 -35 -5 6 -24 48 -42 92 -18 44 -43 101 -56 127 -12 26 -20 50 -17 53 18 17 39 -11 81 -104z M5228 531 c23 -14 10 -46 -18 -46 -16 0 -26 6 -28 19 -3 16 12 36 28 36 3 0 11 -4 18 -9z M2580 455 c0 -13 -22 -15 -140 -15 -118 0 -140 2 -140 15 0 13 22 15 140 15 118 0 140 -2 140 -15z M5390 722 c-45 -22 -62 -58 -54 -112 9 -57 36 -87 85 -95 71 -12 119
32 119 110 0 46 -25 84 -67 101 -41 18 -41 18 -83 -4z M2956 595 c-9 -9 -16 -23 -16 -31 0 -25 39 -54 71 -54 35 0 88 28 90
47 5 49 7 48 -62 51 -51 2 -71 -1 -83 -13z M3542 613 c-65 -8 -78 -84 -17 -99 39 -10 93 5 110 29 21 30 20 67
-2 68 -10 0 -27 2 -38 3 -11 1 -35 1 -53 -1z M4207 608 c-35 -13 -46 -52 -22 -78 21 -23 70 -26 110 -8 25 11 47
60 37 86 -5 15 -84 15 -125 0z M5753 725 c-31 -13 -68 -66 -56 -79 8 -8 188 -8 196 0 9 10 -20 61
-45 78 -27 19 -53 20 -95 1z"/>
</g>
</svg>