<?xml version="1.0" standalone="no"?>
<svg version="1.0" xmlns="http://www.w3.org/2000/svg"
 viewBox="88 175 773 216"
 preserveAspectRatio="xMidYMid meet">
<defs>
  <linearGradient id="ig" gradientUnits="userSpaceOnUse" x1="1800" y1="3900" x2="1800" y2="2300">
    <stop offset="0%" stop-color="#5ee882"/>
    <stop offset="50%" stop-color="#38d4a4"/>
    <stop offset="100%" stop-color="#28c8cc"/>
  </linearGradient>
  <linearGradient id="tg" gradientUnits="userSpaceOnUse" x1="2900" y1="2800" x2="8600" y2="2800">
    <stop offset="0%" stop-color="#46d878"/>
    <stop offset="100%" stop-color="#28c8cc"/>
  </linearGradient>
</defs>
<g transform="translate(0.000000,563.000000) scale(0.100000,-0.100000)" stroke="none">
<path fill="url(#ig)" d="M2157 3831 c195 -38 366 -123 504 -249 l53 -49 -48 -54 c-79 -87 -79 -87 -131 -37 -64 61 -202 142 -293 172 -124 40 -190 49 -335 44 -143 -5 -224 -26 -346 -88 -207 -104 -387 -323 -441 -537 -9 -34 -15 -43 -33 -43 -37 -1 -108 -38 -144 -78 l-35 -37 7 40 c69 410 294 710 641 855 71 29 193 64 259 73 84 12 251 6 342 -12z M2138 3374 c77 -17 130 -43 171 -84 30 -30 31 -35 31 -114 0 -46 3 -111 6 -145 l7 -61 113 0 c69 0 114 4 114 10 0 6 -37 10 -90 10 l-90 0 0 39 c0 95 38 131 150 139 81 5 145 -11 182 -48 28 -28 28 -29 28 -155 0 -127 0 -127 -29 -156 -29 -29 -30 -29 -148 -29 -101 0 -123 -3 -151 -20 -38 -23 -62 -72 -62 -128 0 -21 -5 -43 -11 -49 -7 -7 -15 -55 -18 -107 -7 -103 -20 -132 -79 -172 -97 -66 -340 -88 -501 -44 -108 29 -160 68 -181 133 l-15 47 -197 0 c-109 0 -198 -3 -198 -7 0 -19 99 -171 142 -218 97 -106 294 -224 433 -260 265 -68 585 12 790 198 22 20 45 37 50 37 6 0 37 -27 70 -60 l59 -60 -29 -31 c-73 -76 -224 -173 -340 -220 -366 -146 -796 -69 -1084 196 -152 139 -242 278 -304 465 -28 83 -45 180 -26 145 18 -33 101 -88 154 -102 48 -13 205 -18 205 -7 0 3 -10 22 -22 43 -21 37 -26 39 -83 46 -79 9 -121 30 -156 78 -23 31 -29 51 -29 90 0 42 4 53 34 83 29 29 41 34 80 34 42 0 46 2 46 25 0 30 -12 29 228 25 l182 -2 0 148 c0 130 3 153 20 181 66 109 321 159 548 107z M1470 3153 c23 -49 26 -110 6 -135 -19 -25 -34 -22 -29 6 3 13 -7 47 -21 78 -30 64 -32 97 -9 141 l17 32 8 -40 c5 -22 17 -59 28 -82z M1795 3306 c-155 -38 -191 -107 -82 -160 82 -40 225 -54 349 -33 100
17 186 49 195 74 18 47 -34 91 -142 119 -62 17 -252 17 -320 0z M2450 3089 c-9 -15 -8 -24 1 -35 18 -22 53 -13 57 15 6 40 -39 56
-58 20z M2234 3084 c-11 -8 -58 -24 -104 -35 -118 -30 -291 -24 -403 14 -42
15 -80 27 -82 27 -7 0 -6 -102 1 -140 5 -24 18 -40 51 -60 121 -77 439 -63
539 23 23 21 25 27 22 103 -3 80 -3 81 -24 68z M1240 2850 c0 -80 67 -245 121 -299 30 -30 33 -31 120 -31 l89 0 0
175 0 175 -165 0 c-157 0 -165 -1 -165 -20z M1072 2818 c-18 -18 -14 -62 9 -92 24 -31 51 -46 97 -57 32 -7 33 -6
27 14 -4 12 -14 50 -22 85 l-15 62 -42 0 c-23 0 -47 -5 -54 -12z M1642 2749 c3 -73 6 -83 30 -104 15 -13 53 -33 85 -46 109 -43 372
-28 445 25 15 11 15 21 6 92 -6 43 -11 80 -12 81 -1 1 -24 -5 -53 -12 -82 -21
-201 -28 -288 -16 -77 11 -160 35 -179 53 -6 4 -16 8 -24 8 -11 0 -13 -16 -10
-81z M1646 2563 c-3 -4 -6 -40 -6 -81 0 -69 2 -76 30 -102 16 -15 60 -37
99 -50 61 -19 85 -22 203 -18 109 4 144 8 192 28 91 35 106 55 106 139 0 38
-4 72 -8 75 -5 3 -38 -6 -74 -19 -158 -57 -369 -51 -499 16 -20 10 -39 15 -43
12z M2654 2485 c-10 -25 4 -45 30 -45 13 0 26 7 30 15 9 25 -5 45 -30 45
-14 0 -27 -7 -30 -15z"/>
<path fill="url(#tg)" d="M8534 2966 c26 -11 35 -21 40 -49 7 -36 -7 -86 -27 -99 -20 -13 -111 -8 -130 7 -24 17 -32 82 -15 115 12 23 23 27 91 39 4 0 23 -5 41 -13z M2906 2945 c37 -24 54 -76 54 -164 0 -98 -19 -153 -64 -180 -26 -16 -53 -20 -161 -22 -137 -3 -158 -6 -149 -20 3 -5 43 -9 90 -9 60 0 84 -4 85 -12 3 -35 -4 -95 -12 -110 -17 -31 -70 -50 -153 -55 -71 -4 -87 -2 -126 19 -25 13 -51 34 -57 48 -8 15 -13 68 -13 137 0 103 2 114 24 139 19 23 34 29 92 35 38 5 93 8 122 8 100 1 152 49 152 139 0 67 7 75 54 68 23 -4 50 -13 62 -21z M4198 2868 c8 -8 12 -45 12 -100 l0 -87 98 -3 97 -3 0 -55 0 -55 -97 -3 -98 -3 0 -225 c0 -241 7 -281 50 -304 13 -7 39 -9 64 -6 96 14 91 17 94 -41 3 -45 0 -54 -20 -66 -60 -38 -212 -28 -267 19 -58 49 -65 83 -71 364 l-5 255 -45 2 c-25 1 -51 2 -57 2 -9 1 -13 19 -13 55 0 62 10 70 78 64 l37 -3 3 89 c2 50 8 96 14 103 13 16 110 17 126 1z M8038 2773 l3 -93 92 0 c103 0 117 -7 117 -56 0 -62 -3 -64 -111 -64 l-99 0 0 -212 c0 -232 7 -284 42 -311 22 -18 31 -19 138 -5 23 3 25 -1 28 -36 6 -70 -2 -83 -58 -95 -132 -28 -221 5 -273 103 -21 39 -22 55 -25 298 l-3 257 -57 3 -57 3 -3 43 c-4 58 9 71 66 69 l47 -2 3 75 c4 125 2 121 80 118 l67 -3 3 -92z M3676 2659 c55 -28 108 -91 124 -147 6 -21 10 -156 10 -319 l0 -283 -24 -6 c-13 -3 -38 -4 -56 -2 -29 3 -35 8 -44 42 -10 36 -12 38 -25 22 -8 -10 -38 -29 -65 -44 -44 -23 -63 -26 -141 -26 -73 0 -98 4 -132 22 -119 63 -159 217 -83 326 22 33 48 53 96 77 62 31 75 33 198 38 l131 6 -3 50 c-5 74 -26 111 -79 136 -63 30 -150 23 -239 -21 -85 -42 -98 -38 -102 26 l-3 50 49 27 c78 42 146 57 248 54 74 -2 100 -7 140 -28z M5002 2658 c68 -31 112 -86 127 -159 16 -72 15 -571 -1 -587 -13 -13 -75 -16 -102 -6 -10 4 -16 18 -16 40 0 37 -10 43 -31 18 -24 -29 -112 -66 -170 -71 -114 -11 -218 37 -260 118 -17 35 -20 56 -17 120 3 69 6 81 34 115 70 86 145 114 310 114 l117 0 -6 62 c-6 70 -27 104 -78 131 -52 28 -160 18 -239 -22 -90 -46 -110 -40 -110 30 0 41 38 73 113 98 93 30 95 30 187 27 67 -2 97 -8 142 -28z M5874 2656 c26 -15 58 -46 73 -69 45 -71 53 -129 53 -409 0 -244 -1 -258 -19 -268 -25 -13 -72 -13 -105 0 l-26 10 0 240 c0 274 -7 316 -57 366 -28 29 -41 34 -79 34 -69 0 -128 -33 -182 -104 -21 -28 -22 -36 -22 -280 0 -183 -3 -255 -12 -264 -15 -15 -92 -16 -119 -2 -18 10 -19 25 -19 380 0 355 1 370 19 380 22 11 71 13 95 4 11 -4 16 -19 16 -51 l0 -45 38 30 c81 64 135 82 228 78 56 -2 82 -9 118 -30z M6646 2661 c60 -26 96 -61 121 -116 15 -35 18 -78 21 -332 4 -289 3 -292 -18 -303 -24 -13 -78 -11 -97 3 -7 5 -13 22 -13 38 0 16 -2 29 -5 29 -3 0 -25 -15 -50 -34 -130 -100 -353 -56 -410 81 -19 46 -19 134 1 181 42 102 128 143 317 150 l127 4 0 42 c-1 53 -31 120 -66 143 -21 14 -47 18 -109 18 -71 0 -88 -4 -147 -34 -37 -18 -74 -31 -83 -28 -22 9 -20 89 3 109 85 75 292 100 408 49z M7475 2679 c59 -15 117 -67 146 -131 23 -51 24 -62 27 -345 l3 -292 -25 -7 c-29 -7 -116 3 -116 14 0 4 -2 122 -5 262 -5 239 -7 257 -28 299 -29 60 -67 86 -120 85 -52 -1 -92 -21 -144 -73 -27 -28 -42 -53 -47 -78 -3 -21 -6 -142 -6 -269 0 -259 5 -244 -75 -244 -78 0 -75 -15 -75 395 0 350 1 365 19 375 27 14 84 13 105 -3 14 -10 17 -23 14 -50 -5 -42 1 -46 27 -17 67 74 190 107 300 79z M8541 2670 c18 -10 19 -25 19 -380 0 -355 -1 -370 -19 -380 -11 -5 -36 -10 -56 -10 -20 0 -45 5 -56 10 -18 10 -19 25 -19 380 0 341 1 370 18 379 22 14 88 14 113 1z M3444 2239 c-68 -19 -106 -88 -84 -151 14 -43 52 -70 105 -76 58 -6
110 13 162 61 43 39 43 40 43 108 l0 69 -97 -1 c-54 0 -112 -5 -129 -10z M4772 2243 c-12 -2 -38 -19 -57 -37 -30 -28 -35 -40 -35 -77 0 -25 7
-55 16 -67 50 -71 174 -68 255 8 38 36 39 37 39 108 l0 72 -97 -1 c-54 -1
-108 -4 -121 -6z M6402 2233 c-48 -24 -72 -59 -72 -107 0 -48 19 -80 60 -101 66 -34
176 -5 225 59 21 27 25 44 25 99 l0 67 -102 0 c-74 0 -112 -5 -136 -17z"/>
</g>
</svg>